<?xml version="1.0" encoding="UTF-8"?>
<svg width="128" height="128" viewBox="0 0 128 128" xmlns="http://www.w3.org/2000/svg">
  <!-- Zhul tribal humanoid with elongated skull and elaborate moustache -->
  
  <!-- Body (olive-gray skin) -->
  <ellipse cx="64" cy="96" rx="18" ry="22" fill="#7a7760" stroke="#5a5642" stroke-width="1"/>
  
  <!-- Head (elongated skull) -->
  <ellipse cx="64" cy="45" rx="16" ry="22" fill="#7a7760" stroke="#5a5642" stroke-width="1"/>
  
  <!-- Extended forehead -->
  <ellipse cx="64" cy="32" rx="14" ry="12" fill="#7a7760" stroke="#5a5642" stroke-width="1"/>
  
  <!-- Eyes -->
  <circle cx="58" cy="42" r="2" fill="#2c2c2c"/>
  <circle cx="70" cy="42" r="2" fill="#2c2c2c"/>
  
  <!-- Elaborate spiraling moustache -->
  <path d="M 50 52 Q 45 50 42 52 Q 40 54 42 56 Q 48 58 52 56 Q 56 54 58 52 Q 62 50 64 52 Q 66 50 70 52 Q 72 54 76 56 Q 82 58 86 56 Q 88 54 86 52 Q 83 50 78 52" 
        fill="none" stroke="#3a2f1a" stroke-width="2" stroke-linecap="round"/>
  
  <!-- Moustache curls -->
  <circle cx="42" cy="54" r="3" fill="none" stroke="#3a2f1a" stroke-width="1.5"/>
  <circle cx="86" cy="54" r="3" fill="none" stroke="#3a2f1a" stroke-width="1.5"/>
  
  <!-- Arms -->
  <ellipse cx="44" cy="88" rx="8" ry="18" fill="#7a7760" stroke="#5a5642" stroke-width="1"/>
  <ellipse cx="84" cy="88" rx="8" ry="18" fill="#7a7760" stroke="#5a5642" stroke-width="1"/>
  
  <!-- Legs -->
  <ellipse cx="56" cy="112" rx="8" ry="12" fill="#7a7760" stroke="#5a5642" stroke-width="1"/>
  <ellipse cx="72" cy="112" rx="8" ry="12" fill="#7a7760" stroke="#5a5642" stroke-width="1"/>
  
  <!-- Tribal markings on forehead -->
  <line x1="58" y1="32" x2="70" y2="32" stroke="#3a2f1a" stroke-width="1"/>
  <line x1="60" y1="28" x2="68" y2="28" stroke="#3a2f1a" stroke-width="1"/>
</svg>